<svg height="960" viewBox="0 0 960 960" width="960" xmlns="http://www.w3.org/2000/svg"><path d="m481.879414 0c225.371716 0 374.978538 20.6032164 374.978538 20.6032164v557.5505066c0 219.108338-170.210038 381.846277-376.901505 381.846277-208.449608 0-376.901505-164.935615-376.901505-376.901505v-562.4952786h-.054942s.061952-.0082413.185171-.0243942l.55277-.071864c11.763146-1.519034 163.103231-20.5069582 378.141473-20.5069582zm158.17776 604.635724c-108.015796 19.174726-177.846964 110.927717-322.124421 110.927717-55.381445 0-112.795742-18.515424-152.73851-43.733761 45.382018 151.914382 176.418474 238.063298 314.542436 238.063298 72.070051 0 129.708687-24.178007 157.242742-40.441351l.825135-.490372-9.285183-70.050936c-2.937195-26.924283-15.567131-36.132388-42.581097-39.192602l-.823012-.090864-83.182053-10.548847v-6.098552l88.621302-11.263092c27.468208-4.568969 33.935475-14.415098 37.953709-37.001797l.121035-.688353zm-76.973617 163.507125 4.779947 37.69015c1.538373 8.735764 5.439249 14.010188 15.438677 15.548561l37.854976 4.88983v2.747096l-35.217765 4.450294c-10.384021 1.922967-16.043038 3.021805-18.295656 17.746237l-4.779946 36.041894h-2.692154l-4.395353-35.107881c-1.208722-11.372976-5.604074-16.922108-17.581411-18.460482l-36.261661-4.670062v-2.747096l37.690151-5.054656c10.054369-1.703199 13.680535-5.384307 15.658444-14.66949l4.944772-38.404395zm196.41733-15.878212-63.56779 8.186345c-30.35101 3.861866-35.608589 15.100987-40.135442 45.925369l-.136979.94008-6.92268 55.875923c42.799748-27.635781 78.621874-58.897728 110.762891-110.927717zm-67.084072-152.189092c-14.999142 0-28.910434 1.344978-37.639604 2.42096l-.855492.106642c-5.186184.653759-8.334888 1.183859-8.475333 1.207617l-.004905.000831 10.878498 84.775368c4.188222 31.819607 12.253541 40.107391 44.507097 44.00167l.984805.116684 64.227093 8.406112c25.273279-46.975333 32.635495-79.061409 38.184628-118.619584-23.625021-10.438963-74.50123-22.4163-111.806787-22.4163zm-36.920964-98.675671c-149.277171 0-217.789733 113.674813-369.484348 113.674813-62.578835 0-104.829165-17.306702-132.959423-31.92125.088679 4.965977.311541 10.996482.610833 17.026673l.079772 1.572386c.434292 8.378552 1.006811 16.577258 1.562014 21.728303 39.558175 24.339266 89.005894 39.613117 148.453042 39.668059 153.837349 0 216.416184-112.905626 369.86894-112.905626 50.802587 0 91.96628 11.469745 131.647523 30.784149l1.202016.587682-.191318-4.791744c-.47673-11.984169-.978621-24.001049-2.336009-35.975153-35.107881-21.811939-87.082928-39.448292-148.453042-39.448292zm-461.29228-76.424197c-20.328507 38.184627-33.07503 71.91896-38.239569 117.081211 25.657872 10.384021 65.985234 21.811938 110.378298 21.811938 24.692015-.263803 44.672081-3.567574 46.219582-3.829478l.072093-.012267c.008057-.00138.014125-.002424.01819-.003124l.006165-.001065-10.05437-79.171292c-3.571224-25.273279-6.208435-29.284039-12.197104-35.986952-6.103208-6.697325-15.17975-9.465602-27.699385-11.123378l-.65064-.084771zm285.642992-168.287072c-45.08643 0-78.076267 9.563546-80.01508 10.137359l-.090225.026895 5.713959 43.129399c1.630907 12.666713 6.005172 18.501928 19.616257 20.858825l.43754.074043 48.568649 6.31832v3.351456l-45.546844 6.153494c-15.500278 1.903543-21.309793 7.468042-22.811213 19.677946l-.044622.375852-5.494191 42.744806 56.150633 6.812797v5.878784l-87.577406 11.592743c-30.677365 4.840932-35.668964 14.151295-40.883496 50.001462l-.158111 1.094515-8.680821 73.841928c118.78441-22.4163 187.901333-109.169576 324.212213-109.169576 67.30384 0 123.344589 25.767756 150.815544 43.568935-26.207292-99.939335-133.563784-236.469983-314.212786-236.469983zm-170.374864 48.129114c-48.409317 29.317553-83.787281 68.058604-107.733195 107.213752l-.722136 1.186637 62.798604-8.296229c11.537801-2.087792 21.427345-4.61512 27.361071-11.208149 6.868597-8.058433 8.360117-14.359999 10.134466-27.132525l.084729-.61314zm16.867167 36.206719 3.571224 25.712814c2.447662 21.158679 11.841789 33.001556 28.555552 36.701453l.508718.109627 36.041894 5.274423-4.88983-38.184628c-1.849345-14.957935-6.768058-21.838585-20.566938-23.520694l-.420872-.049385zm68.842213-73.127683c-28.556058 7.193098-53.438667 18.272598-73.442476 29.46523l-.94887.533053 4.670062 38.734047 41.151491-5.16454c14.41254-2.175477 20.264904-6.396783 22.779883-19.751987l.075952-.411694zm370.638128-182.6269101c-28.295084 0-47.524753 11.1532078-47.524753 34.5584621 0 40.327362 54.722143 32.195959 54.722143 50.93115 0 7.197391-5.274423 11.043324-18.240714 11.043324-11.482859 0-29.284038-3.845933-39.832885-9.120357l3.845933 26.427059c10.548847 3.845934 24.943628 5.768901 36.481429 5.768901 29.284038 0 53.238711-9.614835 53.238711-38.404396-.054942-38.459337-55.21662-31.261947-55.21662-49.502661 0-6.263378 6.263378-9.120357 16.317748-9.120357 11.043324 0 23.02066 2.417444 31.207005 5.768901l-2.85698-24.9985696c-9.120357-1.9229668-17.306701-3.3514565-32.141017-3.3514565zm-116.202141 0c-13.900303 0-30.712528.9340125-42.689864 2.4174441v114.773651h35.052939v-27.361072l12.471813-.054942c32.635495 0 53.238712-16.812224 53.238712-46.096262 0-32.1959598-22.086648-43.6788191-58.0736-43.6788191zm-450.578607 0c-13.900303 0-30.712528.9340125-42.689864 2.4174441v114.773651h35.052939v-27.361072l12.416872-.054942c32.635494 0 53.293653-16.812224 53.293653-46.096262 0-32.1959598-22.086648-43.6788191-58.0736-43.6788191zm106.9719 2.3625021h-35.052939v114.773651h35.052939v-45.162251h36.481428v45.162251h35.052939v-114.773651h-35.052939v45.601786h-36.481428zm193.395524 0h-35.052938v114.773651h63.348022l5.274424-23.075603h-33.569508zm-60.930578 0h-35.052939v114.773651h35.052939zm142.07978 0h-35.052939v114.773651h35.052939zm67.139014 19.284336c17.306702-.054667 25.438105 8.131677 25.438105 22.526458 0 14.889258-7.19739 24.998569-25.438105 24.998569h-4.230527v-47.414869c1.793692-.097198 2.346913-.108634 3.660017-.109979zm-450.578607 0c17.25176-.054667 25.438105 8.131677 25.438105 22.526458 0 14.889258-7.19739 24.998569-25.438105 24.998569h-4.175585v-47.414869c1.793692-.097198 2.261364-.108634 3.592081-.109979z"/></svg>