<?xml version="1.0" encoding="utf-8"?>
<svg version="1.1" id="svg2759"
	 xmlns="http://www.w3.org/2000/svg" x="0px" y="0px"
	 viewBox="0 0 509.2 98.9"
	 style="enable-background:new 0 0 509.2 98.9;" xml:space="preserve">
<g id="g2851" transform="matrix(1.25,0,0,-1.25,-154.35527,849.47317)">
	<g>
		<g id="g2853">
			<path id="path2859" d="M262.9,675.2h-21.5v-28h-22.4v28h-21.5v-70.4h21.5v27.7h22.4v-27.7h21.5V675.2z M337.6,619v56.2h-21.5
				v-70.4H355l3.2,14.1H337.6z M300.3,675.2h-21.5v-70.4h21.5V675.2z M387.3,675.2h-21.5v-70.4h21.5V675.2z M493.2,657.2
				c0,3.8,3.8,5.6,10,5.6c6.8,0,14.1-1.5,19.1-3.5l-1.8,15.3c-5.6,1.2-10.6,2.1-19.7,2.1c-17.4,0-29.1-6.8-29.1-21.2
				c0-24.7,33.5-19.7,33.5-31.2c0-4.4-3.2-6.8-11.2-6.8c-7,0-17.9,2.4-24.4,5.6l2.4-16.2c6.5-2.4,15.3-3.5,22.4-3.5
				c17.9,0,32.7,5.9,32.7,23.6C527.1,650.5,493.2,646.1,493.2,657.2 M432.7,621.6c20,0,32.6,10.3,32.6,28.3
				c0,19.7-13.5,26.8-35.6,26.8c-8.5,0-18.8-0.6-26.2-1.5v-70.4H425v16.8H432.7z M444.1,649.6c0-9.1-4.4-15.3-15.6-15.3H425v29.1
				c1.2,0.1,2.4,0.1,3.5,0.1C439.1,663.4,444.1,658.4,444.1,649.6 M156.4,621.6c20,0,32.7,10.3,32.7,28.3
				c0,19.7-13.5,26.8-35.6,26.8c-8.5,0-18.8-0.6-26.2-1.5v-70.4h21.5v16.8H156.4z M167.9,649.6c0-9.1-4.4-15.3-15.6-15.3h-3.5v29.1
				c1.3,0.1,2.4,0.1,3.5,0.1C162.9,663.4,167.9,658.4,167.9,649.6"/>
		</g>
	</g>
</g>
</svg>
