<?xml version="1.0" encoding="utf-8"?>
<!-- Generator: Adobe Illustrator 17.0.0, SVG Export Plug-In . SVG Version: 6.00 Build 0)  -->
<!DOCTYPE svg PUBLIC "-//W3C//DTD SVG 1.1//EN" "http://www.w3.org/Graphics/SVG/1.1/DTD/svg11.dtd">
<svg version="1.1" id="Layer_1" xmlns="http://www.w3.org/2000/svg"  x="0px" y="0px"
	 width="868.134px" height="613.355px" viewBox="0 0 868.134 613.355" enable-background="new 0 0 868.134 613.355"
	 xml:space="preserve">
<g>
	<rect x="10.519" y="11.662" fill="none" width="865.03" height="540.702"/>
	<path fill="#2C3F4F" d="M847.834,0H20.367C9.163,0,0,8.816,0,19.596v520.831c0,10.783,9.163,19.599,20.367,19.6h827.467
		c11.2,0,20.367-8.817,20.367-19.6V19.596C868.201,8.816,859.034,0,847.834,0z M851.585,540.969H16.617V19.058h834.968V540.969z"/>
	<path fill="#2C3F4F" d="M531.253,540.969H336.945l-0.307,2.363c-6.363,17.243-25.745,35.103-25.745,39.53v5.503
		c0,4.565,4.591,8.272,10.261,8.272h225.893c5.666,0,10.262-3.707,10.262-8.272v-5.503c0-4.567-20.301-23.455-25.967-41.209
		L531.253,540.969z"/>
</g>
</svg>