<?xml version="1.0" encoding="utf-8"?>
<!-- Generator: Adobe Illustrator 17.0.0, SVG Export Plug-In . SVG Version: 6.00 Build 0)  -->
<!DOCTYPE svg PUBLIC "-//W3C//DTD SVG 1.1//EN" "http://www.w3.org/Graphics/SVG/1.1/DTD/svg11.dtd">
<svg version="1.1" id="Layer_1" xmlns="http://www.w3.org/2000/svg" xmlns:xlink="http://www.w3.org/1999/xlink" x="0px" y="0px"
	 width="1371.707px" height="873.136px" viewBox="0 0 1371.707 873.136" enable-background="new 0 0 1371.707 873.136"
	 xml:space="preserve">
<g>
	<path d="M916.981,822.846c-6.434-1.745-13.407-2.657-19.062-5.856c-9.285-5.253-12.885-15.223-15.899-24.851
		c-6.03-19.263-7.153-39.287-8.213-59.283c-0.02-2.36-0.039-4.719-0.059-7.079c0-36.174,0-72.348,0-108.801
		c-16.867,0-33.293-0.005-49.72,0.035c-0.348,0.001-0.695,0.532-1.042,0.815c-0.037,5.158-0.009,10.318-0.122,15.474
		c-0.702,31.898,2.737,64.008-4.878,95.553c-2.026,5.03-4.183,10.013-6.053,15.101c-4.829,13.136-11.97,24.912-21.712,34.859
		c-6.674,6.815-14.254,12.743-21.427,19.068c2.617,0.652,5.232,1.304,7.849,1.936c1.745,0.421,3.491,0.833,5.24,1.229
		c-1.749-0.396-3.495-0.808-5.24-1.229c-2.617-0.632-5.232-1.284-7.849-1.936c-0.628,0.184-1.339,0.235-1.869,0.571
		c-25.902,16.414-54.654,23.25-84.847,24.229c-10.235,0.332-20.659-1.167-30.803-2.937c-17.996-3.141-34.865-9.439-49.181-21.26
		c-6.504-5.371-12.746-11.059-19.108-16.604c-0.273-0.758-0.407-1.608-0.839-2.26c-4.344-6.552-9.199-12.812-13.033-19.646
		c-13.258-23.631-18.337-49.533-20.291-76.223c-0.226-1.655-0.581-3.308-0.757-4.963c0.176,1.655,0.532,3.309,0.758,4.964
		c-0.012-21.916-0.024-43.833-0.035-65.752c-1.44-0.357-2.877-1.016-4.319-1.027c-10.821-0.088-21.642-0.049-32.464-0.05
		c-4.596,0-9.193,0-14.053,0c0,23.906-0.006,47.188,0.038,70.471c0.001,0.512,0.576,1.023,0.884,1.534
		c0.343,3.438,0.564,6.893,1.054,10.31c1.487,10.374,2.271,20.937,4.831,31.047c3.344,13.209,7.568,26.27,12.485,38.98
		c3.226,8.34,8.347,15.946,12.619,23.879c2.274,3.665,4.318,7.497,6.863,10.961c9.763,13.286,20.771,25.266,34.499,34.748
		c11.291,7.799,22.575,15.555,35.492,20.297c20.427,7.499,41.403,12.451,63.309,13.522c24.497,1.197,48.624-0.635,71.871-8.473
		c14.855-5.008,29.584-10.82,43.576-17.852c16.682-8.383,31.194-20.105,43.39-34.445c1.534-1.424,3.068-2.848,4.965-4.609
		c6.076,19.669,14.967,37.433,32.137,49.626c16.947,12.034,35.951,16.647,56.432,15.844c0-17.11,0-33.324,0-49.857
		C920.272,822.908,918.522,823.264,916.981,822.846z M527.337,656.973c6.849-2.288,13.666-4.677,20.506-6.993
		c0.025,9.051-0.006,18.103,0.116,27.152c-0.122-9.049-0.092-18.101-0.117-27.151C541.003,652.295,534.186,654.685,527.337,656.973z
		"/>
	<path d="M1369.885,406.828c-0.781-15.565-5.309-30.343-9.147-45.271c-4.768,0.606-9.553,1.107-14.308,1.78
		c4.755-0.672,9.54-1.174,14.308-1.78c-0.37-0.467-0.74-0.931-1.111-1.396c-0.271-0.777-0.541-1.554-0.812-2.331
		c-2.832-6.585-5.126-13.47-8.599-19.697c-9.664-17.335-20.74-33.421-36.28-46.502c-9.288-7.819-18.698-15.268-29.241-20.975
		c-14.117-7.641-28.89-14.092-44.441-18.366c-24.32-6.684-49.095-9.987-74.36-9.141l0,0c-6.948,0.935-13.892,1.893-20.844,2.8
		c-21.02,2.744-40.626,9.64-59.039,20.058c-0.587,0.223-1.233,0.353-1.754,0.681c-14.256,8.984-27.611,18.877-38.809,31.803
		c-10.346,11.942-19.526,24.614-26.162,38.771c-5.958,12.712-10.868,26.057-14.785,39.546c-4.813,16.574-8.042,33.597-7.479,51.063
		c-0.07,0.333-0.14,0.667-0.209,1.001c-0.317,1.357-0.91,2.713-0.911,4.07c-0.031,42.652-0.005,85.305,0.013,127.957
		c-8.354,0.073-16.707,0.146-25.061,0.218c-15.998-0.015-31.996-0.03-47.995-0.045c-0.327,1.479-0.93,2.957-0.939,4.438
		c-0.075,12.471-0.041,24.943-0.04,37.415c0,2.925,0,5.85,0,9.201c25.021,0,49.375,0,73.995,0c0,23.877-0.02,47.302,0.042,70.728
		c0.004,1.655,0.611,3.309,0.937,4.963c0.382,3.343,0.764,6.686,1.146,10.028c1.061,8.962,1.403,18.083,3.328,26.856
		c4.593,20.931,10.537,41.543,21.528,60.158c5.757,9.749,12.624,18.843,18.99,28.23c2.224,2.671,4.122,5.724,6.731,7.94
		c8.576,7.282,17.339,14.35,26.161,21.335c14.885,11.785,32.321,18.43,50.308,23.312c11.404,3.095,23.279,4.709,35.045,6.155
		c20.186,2.481,40.29,1.312,60.283-2.588c22.361-4.362,43.533-11.918,63.466-22.882c20.619-11.34,38.072-26.416,52.294-45.195
		c1.986-2.623,1.803-4.545-1.26-6.459c-4.326-2.702-8.327-5.92-12.497-8.875c-8.406-5.955-16.833-11.88-25.245-17.813
		c-11.536,16.069-26.05,27.938-43.059,36.662c-22.265,11.42-46.237,16.685-71.063,18.151c-12.931,0.764-25.685-1.166-38.301-3.956
		c-25.373-5.611-46.738-17.901-63.401-38.032c-0.918,0.314-2.114,0.363-2.711,0.985c0.597-0.623,1.793-0.671,2.708-0.987
		c-8.575-9.748-14.631-20.924-19.815-32.8c-10.009-22.932-14.278-46.903-14.585-71.736c-0.105-8.475-0.085-16.952-0.122-25.428
		c0.035-12.995,0.071-25.99,0.107-38.986c45.667,0.01,91.335,0.028,137.002-0.01c1.326-0.001,2.652-0.591,3.978-0.906
		c12.257-1.356,24.659-1.948,36.74-4.236c22.22-4.209,43.438-11.644,63.192-22.89c-1.169-1.296-2.206-2.798-3.375-4.095
		c1.168,1.296,2.206,2.799,3.375,4.095c19.98-10.779,37.219-24.947,50.696-43.182c6.334-8.571,11.032-18.351,16.472-27.583
		c0.244-0.689,0.488-1.379,0.733-2.068c0.125-0.307,0.201-0.627,0.228-0.958c0.895-1.512,2.012-2.936,2.652-4.549
		c8.927-22.5,12.335-46.103,13.083-70.081C1371.967,425.925,1370.364,416.373,1369.885,406.828z M972.845,610.761
		C972.845,610.761,972.845,610.761,972.845,610.761c3.882,0,7.764,0,11.736,0C980.609,610.761,976.727,610.761,972.845,610.761z
		 M1318.664,459.793c-2.812,9.074-5.153,18.328-8.536,27.184c-6.735,17.633-18.475,31.568-33.395,42.972
		c-9.518,7.276-19.879,12.994-30.965,17.466c-0.727,0.293-1.307,0.953-1.955,1.442c0,0,0,0,0,0
		c-7.204,2.124-14.34,4.521-21.625,6.316c-14.583,3.594-29.394,5.722-44.456,5.75c-22.285,0.041-44.57,0.073-66.855,0.109
		c0.557,2.492,0.842,5.113,1.396,7.606c-0.554-2.493-0.839-5.114-1.396-7.606c-21.311-0.042-42.622-0.084-63.933-0.126
		c-0.444,0.474-0.901,0.938-1.36,1.401c0.459-0.463,0.915-0.928,1.36-1.401c-0.015-41.507-0.027-83.015-0.054-124.522
		c-0.001-2.154-0.124-4.308-0.191-6.462c0,0,0,0,0,0c2.042-12.222,3.412-24.605,6.275-36.632c5.02-21.086,14.292-40.37,27.71-57.477
		c3.358-4.281,7.573-7.889,11.395-11.806c16.579-14.222,35.667-23.171,57.143-26.98c7.217-1.28,14.5-2.191,21.753-3.271
		c-2.703-0.521-4.11-1.724-4.76-3.604c0.651,1.88,2.058,3.083,4.761,3.604c4.823,0.067,9.645,0.197,14.468,0.188
		c12.832-0.025,25.222,2.694,37.517,5.98c17.609,4.707,33.993,12.099,48.67,22.974c12.238,9.068,22.697,19.85,30.227,33.226
		c2.354,4.182,4.453,8.509,6.665,12.769c-0.001,0-0.001,0-0.002,0c6.003,13.959,9.507,28.632,11.169,43.631
		c1.541,13.899,2.213,27.916-0.717,41.814C1318.6,456.099,1318.754,457.971,1318.664,459.793c-0.381,2.555,0.543,4.208,2.071,5.607
		C1319.208,464.001,1318.283,462.348,1318.664,459.793z"/>
	<path d="M348.781,331.936c-0.269-0.904-0.336-1.944-0.838-2.692c-4.199-6.246-8.701-12.299-12.684-18.678
		c-6.879-11.016-15.811-20.248-25.731-28.304c-16.231-13.18-34.082-23.718-54.571-29.104c-31.801-9.97-64.159-12.207-97.054-6.997
		c-25.897,3.995-50.48,11.711-72.848,25.708c-6.036,3.921-12.258,7.591-18.058,11.837c-5.473,4.007-10.503,8.618-16.089,13.264
		c0-37.447-0.01-74.259,0.002-111.071C50.931,123.933,50.965,61.966,50.994,0C34.329,0,17.665,0,1,0C0.667,1.5,0.042,3,0.041,4.5
		C-0.002,187.643,0,370.787,0,553.931c15.565,0.005,31.131,0.042,46.696-0.036c1.376-0.007,2.748-0.76,4.123-1.167
		c0.059-22.963,0.158-45.926,0.164-68.889c0.005-18.966-0.102-37.933-0.159-56.899c0.485-7.249,0.307-14.62,1.622-21.716
		c1.696-9.154,4.586-18.086,6.963-27.116c5.573-14.288,12.245-27.823,22.77-39.38c11.349-12.463,24.578-22.292,39.767-29.086
		c10.919-4.884,22.645-7.962,34.012-11.846c0.002-3.824-0.001-7.647-0.003-11.471c-0.005-7.647-0.008-15.294,0.025-22.941
		c-0.033,7.647-0.03,15.294-0.025,22.941c0.002,3.824,0.005,7.647,0.004,11.471c7.335-1.278,14.635-3.353,22.012-3.672
		c16.12-0.696,32.34-0.824,48.108,3.429c9.059,2.443,17.918,5.63,26.866,8.481c0.649,0.443,1.26,0.957,1.952,1.318
		c14.317,7.461,26.773,17.156,36.98,29.788c8.353,10.338,14.484,21.9,19.981,33.879c0.146,0.81,0.16,1.674,0.46,2.424
		c9.187,22.973,12.679,46.945,12.669,71.547c-0.004,10.971,0.091,21.941,0.141,32.912c-0.005,25.02-0.009,50.039-0.014,75.059
		c0.811,0.327,1.62,0.935,2.432,0.938c14.94,0.056,29.879,0.055,44.819-0.003c0.809-0.003,1.616-0.612,2.424-0.938
		c0.047-7.135,0.142-14.269,0.135-21.403c-0.027-26.216-0.087-52.431-0.135-78.647c0.903-22.61,0.046-45.08-5.457-67.168
		C364.654,366.977,359.324,348.46,348.781,331.936z M1.123,323.969c-0.049-0.829-0.143-1.659-0.143-2.488
		C0.98,322.31,1.073,323.139,1.123,323.969C1.123,323.969,1.123,323.969,1.123,323.969c0.009,17.671,0.018,35.342,0.027,53.013
		c0,0,0,0,0,0C1.141,359.311,1.132,341.64,1.123,323.969z"/>
	<path d="M823.042,552.999c1.329,0.312,2.657,0.888,3.987,0.894c14.318,0.066,28.638,0.051,42.956,0.027
		c1.258-0.002,2.515-0.221,3.91-0.352c0-1.201,0-2.024,0-2.848c0.004-101.231,0.013-202.462-0.028-303.693
		c-0.001-1.312-0.625-2.625-0.957-3.937c-16.576,0-33.152,0-49.785,0c-0.121,1.182-0.246,1.828-0.245,2.475
		c0.059,67.439,0.127,134.877,0.195,202.316C823.063,482.92,823.052,517.96,823.042,552.999z M864.29,461.272
		c2.801-0.048,5.606,0.446,8.423,0.673c0.056-1.996,0.162-3.991,0.162-5.987c0,1.996-0.106,3.991-0.162,5.987
		C869.896,461.718,867.091,461.224,864.29,461.272c-0.623,0.011-1.245,0.048-1.867,0.121
		C863.045,461.32,863.667,461.282,864.29,461.272z"/>
	<path d="M374.901,838.856c-0.023-33.339-0.046-66.677-0.068-100.015c0.009-40.332,0.019-80.664,0.028-120.996
		c-0.836-0.308-1.672-0.883-2.51-0.886c-14.933-0.055-29.865-0.055-44.798-0.001c-0.839,0.003-1.675,0.578-2.512,0.887
		c0.013,44.665,0.025,89.33,0.037,133.994c-0.022,31.673-0.044,63.345-0.065,95.018c-0.02,7.144,0.087,14.291-0.115,21.43
		c-0.093,3.298,0.712,4.734,4.385,4.683c13.787-0.191,27.581-0.193,41.368-0.001c3.702,0.051,4.418-1.444,4.36-4.708
		C374.839,858.462,374.919,848.658,374.901,838.856z"/>
	<path d="M547.397,553.878c0.453-0.001,0.905-0.63,1.358-0.967c0.032-0.498,0.092-0.997,0.092-1.495
		c0.043-101.444,0.087-202.888,0.079-304.332c0-1.326-0.646-2.651-0.991-3.977c-16.334,0.004-32.67,0.007-49.004,0.01
		c-0.336,1.638-0.966,3.276-0.967,4.914c-0.043,100.257-0.035,200.515-0.02,300.772c0,1.607,0.138,3.214,0.226,5.116
		C514.814,553.92,531.106,553.928,547.397,553.878z M499.115,355.983c-0.027-0.979-0.065-1.958-0.098-2.938
		C499.05,354.025,499.088,355.004,499.115,355.983C499.115,355.983,499.115,355.983,499.115,355.983z"/>
	<path d="M50.85,617.994c-0.281,0.036-0.558,0.096-0.83,0.177c-0.029,19.904-0.059,39.807-0.088,59.711
		c0.029-19.904,0.059-39.807,0.087-59.711C50.292,618.089,50.569,618.03,50.85,617.994c-1.424-0.36-2.847-1.029-4.272-1.035
		c-15.526-0.072-31.052-0.039-46.578-0.035c0,76.657,0,153.314,0,229.971c0,8.666,0,17.331,0,25.997
		c16.729-0.079,33.458-0.158,50.188-0.237v0c0.237-1.758,0.678-3.515,0.681-5.273c0.062-33.643,0.093-67.285,0.085-100.928
		c-0.003-13.486-0.115-26.972-0.177-40.457C50.801,689.995,50.825,653.995,50.85,617.994z M49.993,790.952
		c0.059,24.759,0.118,49.516,0.177,74.274C50.111,840.468,50.052,815.71,49.993,790.952c-16.273-0.015-32.546-0.03-48.819-0.046l0,0
		C17.447,790.921,33.72,790.937,49.993,790.952c0.079-21.652,0.158-43.304,0.235-64.956c0.002,0,0.145-0.007,0.224-0.011
		l-0.222,0.011C50.151,747.648,50.072,769.3,49.993,790.952z"/>
</g>
</svg>
